<?xml version="1.0" standalone="no"?>
<!DOCTYPE svg PUBLIC "-//W3C//DTD SVG 20010904//EN"
 "http://www.w3.org/TR/2001/REC-SVG-20010904/DTD/svg10.dtd">
<svg version="1.0" xmlns="http://www.w3.org/2000/svg"
 width="8334.000000pt" height="8334.000000pt" viewBox="0 0 8334.000000 8334.000000"
 preserveAspectRatio="xMidYMid meet">

<g transform="translate(0.000000,8334.000000) scale(0.100000,-0.100000)"
fill="#000000" stroke="none">
<path d="M34217 68019 c-1386 -56 -2500 -389 -3437 -1027 -395 -269 -777 -587
-1082 -901 -536 -552 -917 -1153 -1163 -1836 -56 -155 -75 -188 -118 -206 -38
-16 -83 -15 -357 5 -795 60 -1660 33 -2425 -75 -1592 -225 -3040 -770 -4264
-1607 -1066 -728 -1999 -1693 -2763 -2857 -1109 -1689 -1561 -3446 -1357
-5280 124 -1125 491 -2101 1088 -2895 276 -367 624 -719 1003 -1013 347 -269
791 -538 1200 -729 796 -369 1703 -584 2848 -673 113 -9 228 -20 256 -26 66
-13 181 -68 264 -127 249 -176 1168 -878 1324 -1011 162 -138 498 -566 748
-951 895 -1382 1472 -3242 1632 -5270 31 -384 37 -542 43 -1050 17 -1501 -103
-2607 -672 -6200 -178 -1125 -229 -1430 -336 -2010 -177 -952 -220 -1189 -274
-1510 -67 -406 -79 -519 -72 -679 7 -139 24 -215 68 -307 107 -219 367 -345
879 -429 689 -112 1384 -95 2275 56 99 17 731 143 1405 279 3170 643 4603 897
6240 1104 2511 319 4846 421 6965 306 1504 -82 3024 -286 4060 -546 900 -225
1733 -565 2273 -925 310 -208 616 -474 691 -603 126 -213 100 -439 -73 -658
-58 -73 -208 -204 -288 -251 -68 -40 -467 -219 -673 -302 -423 -170 -985 -305
-1555 -375 -415 -50 -507 -55 -1100 -54 -708 0 -847 9 -1790 124 -1799 220
-3503 366 -5790 495 -835 47 -932 50 -1137 37 -263 -17 -707 -68 -742 -86 -30
-16 -165 -123 -168 -134 -2 -9 102 -94 148 -121 42 -25 66 -29 371 -75 337
-51 519 -70 1218 -126 572 -45 1073 -85 3520 -275 1016 -79 1238 -98 2150
-180 1512 -136 2059 -169 2815 -169 475 0 696 8 1085 40 945 76 1850 257 2695
539 525 175 881 352 1160 578 472 381 520 849 127 1234 -83 81 -264 234 -397
334 -787 596 -2041 1099 -3495 1403 -1325 277 -3047 496 -4650 590 -853 51
-1241 61 -2335 61 -1002 0 -1262 -5 -2025 -40 -3244 -150 -6470 -604 -10642
-1499 -218 -47 -551 -114 -740 -151 -188 -36 -356 -68 -372 -71 -26 -6 -28 -4
-22 22 3 16 10 119 16 229 22 392 14 343 420 2700 742 4313 834 4947 912 6330
17 301 17 1520 0 1805 -68 1136 -196 2015 -422 2905 -261 1030 -659 1994
-1156 2802 -77 124 -134 234 -134 258 0 9 153 5 235 -5 375 -46 961 -68 1397
-52 2035 75 3573 587 4776 1591 100 84 160 153 236 273 l17 27 -56 36 c-162
104 -227 133 -335 154 -325 61 -551 83 -855 83 -446 -1 -838 -68 -1067 -183
-86 -43 -219 -130 -303 -199 -210 -171 -532 -394 -780 -540 -483 -284 -1151
-536 -1631 -617 -82 -13 -162 -18 -324 -18 -238 0 -274 5 -555 77 -1098 279
-1987 784 -2689 1527 -432 458 -801 1033 -1076 1676 -85 197 -103 229 -171
296 -81 80 -131 97 -354 120 -614 63 -1206 86 -1406 55 -107 -17 -488 -106
-544 -128 -43 -16 -94 -67 -104 -104 -14 -51 4 -114 72 -251 189 -376 485
-1003 474 -1003 -11 0 -208 84 -338 144 -282 131 -589 311 -839 493 -658 479
-1230 1183 -1630 2007 -549 1130 -692 2356 -434 3726 407 2168 1401 3952 2934
5267 828 710 1841 1315 2947 1759 535 215 1057 314 1652 314 296 0 634 -29
893 -76 l87 -16 5 -36 c2 -21 5 -131 5 -247 0 -577 129 -1106 403 -1663 291
-589 654 -978 1120 -1202 314 -150 730 -271 1133 -329 461 -66 957 -52 1420
40 109 22 202 61 360 154 l97 57 -119 80 c-161 108 -196 124 -333 158 -412
102 -680 317 -1010 810 -311 466 -484 907 -557 1425 -25 182 -25 595 0 785 95
704 393 1431 828 2020 152 207 272 345 483 556 431 430 887 765 1522 1115 387
214 635 290 943 290 243 1 436 -47 661 -161 206 -105 969 -649 1495 -1064 448
-355 829 -549 1237 -630 118 -24 617 -77 1048 -113 312 -25 789 -23 1100 5
771 70 1434 141 2640 283 1715 201 1701 200 2110 206 368 6 527 -6 783 -57
511 -103 1082 -391 1542 -779 505 -426 1078 -1196 1295 -1741 187 -469 213
-1036 74 -1602 -164 -670 -489 -1259 -1019 -1848 -229 -254 -943 -949 -2690
-2616 -352 -336 -653 -629 -668 -651 -37 -53 -45 -102 -22 -137 36 -55 235
-129 445 -165 559 -98 1063 -95 1583 10 167 33 282 74 362 127 46 32 735 679
1554 1461 1009 963 1848 1793 2023 2001 620 738 925 1430 997 2265 7 72 18
296 25 498 8 202 15 369 17 371 2 2 132 9 289 15 157 6 373 20 480 30 330 33
503 42 825 42 850 0 1527 -118 2500 -438 1356 -446 2474 -1064 3425 -1897 147
-128 468 -443 623 -611 824 -893 1507 -2074 1848 -3195 126 -413 208 -822 254
-1265 22 -212 31 -698 16 -925 -65 -998 -362 -1918 -924 -2859 -729 -1221
-1673 -2178 -2797 -2835 -187 -109 -552 -296 -742 -380 -1006 -443 -2123 -688
-3363 -736 -605 -23 -739 -35 -1275 -109 -155 -22 -290 -46 -306 -54 -16 -9
-57 -44 -92 -79 l-63 -64 63 -60 c35 -34 72 -66 84 -72 29 -15 439 -97 609
-121 232 -33 446 -43 825 -40 l355 4 3 -35 c3 -33 -5 -45 -88 -135 -51 -55
-126 -147 -168 -205 -42 -58 -189 -256 -327 -440 -606 -808 -750 -1036 -1076
-1705 -768 -1575 -1219 -3252 -1354 -5025 -32 -427 -39 -647 -38 -1220 1 -814
19 -1488 93 -3505 22 -594 47 -1296 55 -1560 16 -511 21 -549 71 -624 53 -80
120 -110 348 -156 430 -86 876 -97 1310 -34 261 38 354 74 406 155 55 88 55
68 6 1264 -68 1619 -82 2016 -106 2815 -42 1443 -37 2065 21 2820 111 1456
412 2737 975 4152 539 1356 1212 2434 2059 3302 183 187 278 267 378 318 101
51 130 59 337 103 910 191 1700 445 2450 787 1384 632 2619 1613 3420 2718
1169 1613 1583 3600 1149 5519 -279 1233 -885 2370 -1844 3456 -173 196 -572
592 -780 774 -639 560 -1320 1016 -2120 1421 -1516 767 -3175 1212 -4995 1340
-372 26 -671 35 -1130 35 -569 0 -967 -16 -1510 -61 -135 -11 -280 -20 -322
-20 -140 -1 -190 38 -313 246 -476 801 -1074 1407 -1800 1825 -142 82 -437
224 -590 285 -678 269 -1670 454 -2704 505 -263 13 -846 13 -1121 0 -618 -29
-1148 -83 -2620 -265 -465 -58 -991 -120 -1170 -140 -179 -19 -453 -51 -610
-70 -157 -20 -323 -35 -370 -35 -149 1 -195 26 -534 289 -624 484 -1156 855
-1534 1072 -633 363 -1266 551 -2103 623 -381 34 -931 44 -1382 25z"/>
<path d="M49810 51729 c-248 -24 -512 -115 -767 -265 -54 -32 -213 -135 -353
-229 -1330 -893 -2634 -1484 -4046 -1834 -877 -217 -1552 -261 -2239 -145
-1260 212 -2419 761 -3525 1669 -85 70 -176 138 -203 152 -94 47 -429 122
-712 160 -186 24 -638 24 -830 0 -169 -22 -443 -76 -581 -116 -237 -68 -284
-117 -213 -225 88 -132 759 -635 1222 -915 1209 -731 2670 -1199 4237 -1357
347 -35 1253 -30 1910 11 2910 182 5291 984 7580 2554 311 213 350 266 259
345 -44 38 -179 99 -269 121 -88 23 -1228 92 -1365 84 -11 -1 -58 -5 -105 -10z"/>
<path d="M66580 42648 c-75 -11 -181 -66 -265 -136 -38 -33 -677 -637 -1420
-1342 -742 -706 -1537 -1461 -1765 -1677 -228 -217 -455 -438 -504 -491 -103
-113 -306 -413 -450 -665 -405 -707 -663 -1434 -801 -2252 -55 -329 -83 -648
-94 -1055 -7 -233 -12 -310 -26 -364 -19 -74 -85 -188 -325 -566 -900 -1418
-1826 -2629 -2803 -3665 -88 -93 -642 -658 -1231 -1255 -589 -597 -1265 -1283
-1501 -1525 -2580 -2644 -4039 -3954 -5275 -4733 -582 -367 -1080 -618 -1790
-904 -851 -342 -1581 -740 -2185 -1190 -257 -192 -362 -332 -430 -573 -40
-142 -44 -244 -34 -835 12 -677 23 -936 44 -1015 42 -158 163 -345 312 -485
93 -88 386 -335 415 -351 51 -27 1552 -97 1823 -84 191 9 275 35 425 134 163
107 432 432 712 861 323 493 548 930 949 1840 370 842 790 1550 1256 2118 117
142 414 479 863 977 1309 1454 1915 2048 5445 5346 934 872 979 913 1320 1207
1090 937 2376 1834 3798 2651 379 217 377 217 752 237 847 45 1404 142 2034
356 634 214 1187 500 1626 839 170 131 268 219 620 558 582 560 907 865 1870
1751 764 704 1111 1027 1163 1084 138 150 183 302 131 441 -26 70 -116 169
-191 211 -48 26 -61 29 -148 29 -90 0 -100 -2 -170 -37 -41 -20 -111 -66 -155
-101 -44 -35 -845 -704 -1779 -1486 -935 -783 -1739 -1455 -1788 -1493 l-89
-70 -122 128 c-68 71 -202 212 -299 314 l-177 185 32 34 c32 33 1111 1038
2637 2454 816 757 900 838 957 922 38 57 73 159 73 215 0 106 -75 236 -173
304 -125 85 -270 81 -414 -13 -93 -60 107 123 -2128 -1951 -1156 -1072 -1436
-1330 -1506 -1388 -15 -12 -80 54 -568 573 -303 322 -551 590 -551 595 0 4 35
36 77 70 43 34 334 305 647 603 2162 2054 2700 2568 2769 2639 43 45 93 107
111 137 106 175 82 341 -69 480 -60 56 -124 83 -206 89 -132 9 -247 -52 -434
-228 -183 -174 -1866 -1774 -2560 -2434 -693 -660 -839 -796 -854 -796 -10 0
-581 615 -581 626 0 18 213 245 1639 1748 839 885 1566 1652 1614 1705 117
128 159 210 165 324 3 66 0 93 -17 139 -64 168 -224 263 -401 236z"/>
<path d="M14634 42480 c-673 -57 -1245 -277 -1802 -695 -676 -506 -1100 -1187
-1256 -2015 -100 -528 -95 -1107 15 -1750 177 -1039 590 -1941 1250 -2731 131
-156 455 -487 619 -632 771 -679 1617 -1152 2410 -1346 366 -89 597 -115 1015
-116 334 0 470 10 705 50 198 34 221 25 621 -242 1688 -1132 3102 -2346 4355
-3738 104 -115 475 -536 824 -935 674 -770 739 -844 1340 -1515 1317 -1469
2040 -2319 2763 -3247 780 -1002 1230 -1684 1606 -2435 235 -470 385 -842 600
-1492 177 -532 299 -845 479 -1230 191 -407 473 -896 635 -1100 103 -129 274
-238 440 -281 91 -23 296 -39 932 -76 703 -40 822 -36 956 32 82 41 127 74
256 191 65 58 151 131 191 160 121 90 179 158 228 270 53 118 59 166 185 1341
31 280 32 311 22 417 -14 134 -54 264 -116 375 -77 138 -342 381 -737 677
-484 361 -944 646 -1655 1023 -1124 596 -1622 972 -2688 2029 -669 663 -1162
1205 -1886 2071 -415 496 -632 760 -1741 2115 -536 655 -1125 1372 -1309 1595
-449 542 -698 853 -943 1182 -1034 1380 -1917 2881 -2675 4548 -107 235 -115
258 -120 380 -4 97 -1 122 41 315 47 222 74 363 157 830 51 287 51 292 45 437
-59 1386 -754 2864 -1852 3938 -945 924 -2041 1461 -3249 1590 -136 14 -537
21 -661 10z"/>
</g>
</svg>
